<svg width="24" height="24" viewBox="0 0 24 24" fill="none" xmlns="http://www.w3.org/2000/svg">
<path d="M12 0.00400177L22.6 6.00001V17.996L12 23.992L1.39999 17.996V6.00001L12 0.00400177Z" fill="white"/>
<path d="M20.708 17.58L12.352 22.312V18.632L17.56 15.764L20.708 17.58ZM21.28 17.064V7.176L18.224 8.94V15.3L21.28 17.064ZM3.25999 17.58L11.616 22.308V18.628L6.40799 15.764L3.25999 17.58V17.58ZM2.68799 17.064V7.176L5.74399 8.94V15.3L2.68799 17.064V17.064ZM3.04399 6.536L11.616 1.688V5.248L6.12399 8.268L6.07999 8.292L3.04399 6.536V6.536ZM20.92 6.536L12.352 1.688V5.248L17.84 8.272L17.884 8.296L20.92 6.536V6.536Z" fill="#8ED6FB"/>
<path d="M11.616 17.792L6.48 14.964V9.368L11.616 12.332V17.792V17.792ZM12.352 17.792L17.488 14.968V9.368L12.352 12.332V17.792V17.792ZM6.824 8.72L11.984 5.884L17.14 8.72L11.984 11.696L6.824 8.72V8.72Z" fill="#1C78C0"/>
</svg>
