<svg width="500" height="230" viewBox="0 0 500 230" fill="none" xmlns="http://www.w3.org/2000/svg">
<path d="M55 130H70.0001V145H55V130Z" fill="#DA4453"/>
<path d="M100 130H85V100H100V130ZM100 100V85.0001H130V100H100ZM100 145V130H130V145H100Z" fill="#2A4365"/>
<path d="M160 130H145V100H160V85.0001H190V100H205V130H190V145H160V130ZM190 130V100H160V130H190Z" fill="#2A4365"/>
<path d="M235.001 145H220.001V85.0001H265.001V100H235.001V145ZM265.001 100H280.001V145H265.001V100Z" fill="#2A4365"/>
<path d="M325.001 85.0001V100H340.001V115H325.001V145H310.001V115H295.001V100H310.001V85.0001H325.001ZM340.001 85.0001H325.001V70H340.001V85.0001Z" fill="#2A4365"/>
<path d="M370 85.0001H355V70H370V85.0001ZM370 145H355V100H370V145Z" fill="#2A4365"/>
<path d="M400 160H430V145H400V130H385V100H400V85.0001H445V160H430V175H400V160ZM400 130H430V100H400V130Z" fill="#2A4365"/>
</svg>
