<svg width="590" height="305" viewBox="0 0 590 305" fill="none" xmlns="http://www.w3.org/2000/svg">
<path d="M100 160H115V175H100V160Z" fill="#DA4453"/>
<path d="M145 160H130V130H145V160ZM145 130V115H175V130H145ZM145 175V160H175V175H145Z" fill="#2A4365"/>
<path d="M205 160H190V130H205V115H235V130H250V160H235V175H205V160ZM235 160V130H205V160H235Z" fill="#2A4365"/>
<path d="M280.001 175H265.001V115H310.001V130H280.001V175ZM310.001 130H325.001V175H310.001V130Z" fill="#2A4365"/>
<path d="M370.001 115V130H385.001V145H370.001V175H355.001V145H340.001V130H355.001V115H370.001ZM385.001 115H370.001V100H385.001V115Z" fill="#2A4365"/>
<path d="M415 115H400V100H415V115ZM415 175H400V130H415V175Z" fill="#2A4365"/>
<path d="M445 190H475V175H445V160H430V130H445V115H490V190H475V205H445V190ZM445 160H475V130H445V160Z" fill="#2A4365"/>
</svg>
